<?xml version="1.0" encoding="UTF-8" standalone="no"?>
<!-- Generator: Adobe Illustrator 17.1.0, SVG Export Plug-In . SVG Version: 6.00 Build 0)  -->

<svg
   xmlns:dc="http://purl.org/dc/elements/1.1/"
   xmlns:cc="http://creativecommons.org/ns#"
   xmlns:rdf="http://www.w3.org/1999/02/22-rdf-syntax-ns#"
   xmlns:svg="http://www.w3.org/2000/svg"
   xmlns="http://www.w3.org/2000/svg"
   xmlns:sodipodi="http://sodipodi.sourceforge.net/DTD/sodipodi-0.dtd"
   xmlns:inkscape="http://www.inkscape.org/namespaces/inkscape"
   version="1.1"
   id="Layer_1"
   x="0px"
   y="0px"
   viewBox="0 0 612 612"
   enable-background="new 0 0 612 612"
   xml:space="preserve"
   inkscape:version="0.91 r13725"
   sodipodi:docname="bootstrap-solid.svg"><metadata
     id="metadata12"><rdf:RDF><cc:Work
         rdf:about=""><dc:format>image/svg+xml</dc:format><dc:type
           rdf:resource="http://purl.org/dc/dcmitype/StillImage" /></cc:Work></rdf:RDF></metadata><defs
     id="defs10" /><sodipodi:namedview
     pagecolor="#ffffff"
     bordercolor="#666666"
     borderopacity="1"
     objecttolerance="10"
     gridtolerance="10"
     guidetolerance="10"
     inkscape:pageopacity="0"
     inkscape:pageshadow="2"
     inkscape:window-width="1366"
     inkscape:window-height="705"
     id="namedview8"
     showgrid="false"
     inkscape:zoom="0.38562092"
     inkscape:cx="306"
     inkscape:cy="306"
     inkscape:window-x="-8"
     inkscape:window-y="-8"
     inkscape:window-maximized="1"
     inkscape:current-layer="Layer_1" /><g
     id="solid"
     sodipodi:docname="twitter_bootstrap_logo.svg"
     inkscape:version="0.48.1 r9760"><path
       id="bg"
       fill="#563D7C"
       d="M612,510c0,56.1-45.9,102-102,102H102C45.9,612,0,566.1,0,510V102C0,45.9,45.9,0,102,0h408   c56.1,0,102,45.9,102,102V510z" /><g
       id="B"
       enable-background="new    "><path
         fill="#FFFFFF"
         d="M166.3,133h173.5c32,0,57.7,7.3,77,22s29,36.8,29,66.5c0,18-4.4,33.4-13.2,46.2    c-8.8,12.8-21.4,22.8-37.8,29.8v1c22,4.7,38.7,15.1,50,31.2c11.3,16.2,17,36.4,17,60.8c0,14-2.5,27.1-7.5,39.2    c-5,12.2-12.8,22.7-23.5,31.5s-24.3,15.8-41,21s-36.5,7.8-59.5,7.8h-164L166.3,133L166.3,133z M228.8,282.5h102    c15,0,27.5-4.2,37.5-12.8s15-20.8,15-36.8c0-18-4.5-30.7-13.5-38s-22-11-39-11h-102L228.8,282.5L228.8,282.5z M228.8,439h110.5    c19,0,33.8-4.9,44.2-14.8c10.5-9.8,15.8-23.8,15.8-41.8c0-17.7-5.2-31.2-15.8-40.8s-25.2-14.2-44.2-14.2H228.8V439z"
         id="path6" /></g></g><path
     style="fill:#008080"
     d="M 68.066137,604.67579 C 48.884817,597.74859 27.675335,580.48695 17.162896,563.24746 0.18863759,535.41113 0.51864407,540.48388 0.51864407,307.39806 0.51864407,163.1694 1.4254476,92.388874 3.3937589,82.981031 10.125012,50.807986 31.134652,24.781739 62.290166,10.021554 L 79.611864,1.8152542 298.34627,1.0824898 C 540.89748,0.26993842 534.94915,-0.08987596 563.24746,17.10639 c 8.44057,5.129146 19.07552,14.93264 26.05279,24.015931 21.88244,28.487459 20.80107,13.93767 20.01927,269.358039 l -0.69071,225.6506 -8.40535,17.07207 c -10.12302,20.56079 -28.67233,38.77171 -49.3766,48.4758 l -14.82822,6.94998 -226.90678,0.57658 C 89.133804,609.76433 81.773345,609.62604 68.066137,604.67579 Z M 375.01192,486.74974 c 38.05668,-8.06227 64.82582,-25.99493 78.18235,-52.37439 7.11813,-14.0585 7.62098,-17.0193 7.62098,-44.87366 0,-27.46391 -0.59727,-31.11555 -7.55324,-46.18063 -8.94991,-19.38342 -24.81129,-34.48631 -43.56559,-41.4823 l -12.96452,-4.8362 8.09837,-3.35443 c 13.54748,-5.61155 33.3102,-29.5372 38.15027,-46.18642 5.6074,-19.28879 3.72171,-49.26597 -4.15284,-66.01833 -6.6146,-14.07197 -24.69928,-31.7313 -38.46142,-37.55681 -24.53667,-10.38638 -32.69494,-11.05127 -135.98747,-11.08291 l -100.48728,-0.0308 0,177.20338 c 0,97.46188 0.77796,177.98138 1.72881,178.93221 0.95085,0.95085 44.4197,1.70857 96.59747,1.6838 73.27335,-0.0347 98.94906,-0.90947 112.79411,-3.84253 z"
     id="path3340"
     inkscape:connector-curvature="0" /><path
     style="fill:#008080"
     d="m 228.72203,384.31525 0,-54.45762 64.9138,0 c 67.92444,0 76.51088,1.19906 88.91554,12.41669 22.07601,19.96351 18.93072,69.0592 -5.46226,85.26189 -13.7113,9.10753 -31.03821,11.23667 -91.44387,11.23667 l -56.92321,0 0,-54.45763 z"
     id="path3342"
     inkscape:connector-curvature="0" /><path
     style="fill:none"
     d="m 228.72203,232.44221 0,-48.14423 61.58899,0.81796 c 56.065,0.74459 62.37873,1.28314 70.39418,6.0044 12.7831,7.5295 18.97524,17.26667 20.39826,32.07639 1.81112,18.84861 -1.12205,30.30599 -10.49001,40.9755 -13.60347,15.49349 -18.285,16.41421 -83.46067,16.41421 l -58.43075,0 0,-48.14423 z"
     id="path3344"
     inkscape:connector-curvature="0" /><path
     style="fill:none"
     d="m 228.72203,232.44221 0,-48.14423 61.58899,0.81796 c 56.065,0.74459 62.37873,1.28314 70.39418,6.0044 12.7831,7.5295 18.97524,17.26667 20.39826,32.07639 1.81112,18.84861 -1.12205,30.30599 -10.49001,40.9755 -13.60347,15.49349 -18.285,16.41421 -83.46067,16.41421 l -58.43075,0 0,-48.14423 z"
     id="path3346"
     inkscape:connector-curvature="0" /><path
     style="fill:#0094ec"
     d="m 228.72203,383.98173 0,-54.79116 65.47882,1.17257 c 59.34416,1.0627 66.61748,1.68088 77.63247,6.59815 8.91331,3.97905 13.48673,8.07655 17.15363,15.36859 14.62382,29.08113 6.26756,65.00479 -18.04544,77.57753 -9.94454,5.14252 -50.67949,8.66975 -101.37626,8.77814 l -40.84322,0.0873 0,-54.79115 z"
     id="path3348"
     inkscape:connector-curvature="0" /><path
     style="fill:#0094ec"
     d="M 67.326745,603.40672 C 44.10669,594.87748 21.197394,572.88685 10.619233,548.97315 6.0367683,538.61373 4.6865645,528.63735 2.9259201,492.12888 0.38089609,439.3556 0.23114851,211.53258 2.6896653,132.69572 L 4.4307602,76.864319 12.82497,59.813257 C 22.814203,39.522244 40.366057,22.175323 61.77959,11.430225 L 77.018644,3.7834206 258.54407,2.5679453 c 99.83898,-0.6685115 203.18262,-0.4238137 229.65256,0.5437728 44.35916,1.6215127 49.28633,2.2899376 62.93292,8.5375559 18.25124,8.35569 41.52648,31.066002 49.01298,47.82334 7.83852,17.545252 9.12481,66.080606 7.75004,292.427386 l -1.13404,186.71186 -7.81708,14.84152 c -9.37563,17.80059 -29.88733,37.88288 -48.13997,47.1322 l -13.3138,6.74662 -230.23453,-0.18282 C 118.8596,606.99975 75.257316,606.31968 67.326745,603.40661 l 0,1.1e-4 z M 371.34915,487.92774 c 20.54827,-3.25535 50.25174,-16.84318 64.02877,-29.28988 5.60955,-5.06788 13.62776,-15.40332 17.81825,-22.96764 7.29024,-13.15968 7.61906,-15.15231 7.61841,-46.16853 -6.2e-4,-30.72211 -0.39868,-33.20144 -7.62098,-47.46687 -8.93015,-17.63877 -22.8483,-31.05882 -40.87208,-39.40938 -10.76254,-4.98635 -12.03789,-6.26001 -7.6597,-7.64958 9.14696,-2.90314 33.19635,-31.28827 37.69487,-44.49067 5.34156,-15.67663 5.3753,-42.78235 0.0755,-60.62878 -5.60784,-18.88374 -27.32946,-40.79695 -49.05974,-49.49251 -15.38199,-6.15524 -16.6292,-6.22713 -122.51055,-7.06143 l -106.97033,-0.84288 0,177.36004 c 0,97.548 0.77796,178.13801 1.72881,179.08884 2.81077,2.81076 187.3491,1.93104 205.72881,-0.98073 z"
     id="path3350"
     inkscape:connector-curvature="0" /><path
     style="fill:#0094ec"
     d="m 228.72203,232.44221 0,-48.14423 61.58899,0.81796 c 56.065,0.74459 62.37873,1.28314 70.39418,6.0044 12.7831,7.5295 18.97524,17.26667 20.39826,32.07639 1.81112,18.84861 -1.12205,30.30599 -10.49001,40.9755 -13.60347,15.49349 -18.285,16.41421 -83.46067,16.41421 l -58.43075,0 0,-48.14423 z"
     id="path3352"
     inkscape:connector-curvature="0" /></svg>